<svg width="24" height="24" viewBox="0 0 24 24" fill="none" xmlns="http://www.w3.org/2000/svg">
<path fill-rule="evenodd" clip-rule="evenodd" d="M12 21C16.9706 21 21 16.9706 21 12C21 7.02944 16.9706 3 12 3C7.02944 3 3 7.02944 3 12C3 16.9706 7.02944 21 12 21ZM23 12C23 18.0751 18.0751 23 12 23C5.92487 23 1 18.0751 1 12C1 5.92487 5.92487 0.999999 12 0.999999C18.0751 1 23 5.92487 23 12Z" fill="black"/>
<path fill-rule="evenodd" clip-rule="evenodd" d="M11.2929 16.7071C10.9024 16.3166 10.9024 15.6834 11.2929 15.2929L14.5858 12L11.2929 8.70711C10.9024 8.31658 10.9024 7.68342 11.2929 7.29289C11.6834 6.90237 12.3166 6.90237 12.7071 7.29289L16.7071 11.2929C17.0976 11.6834 17.0976 12.3166 16.7071 12.7071L12.7071 16.7071C12.3166 17.0976 11.6834 17.0976 11.2929 16.7071Z" fill="black"/>
<path fill-rule="evenodd" clip-rule="evenodd" d="M17 12C17 12.5523 16.5523 13 16 13L8 13C7.44771 13 7 12.5523 7 12C7 11.4477 7.44771 11 8 11L16 11C16.5523 11 17 11.4477 17 12Z" fill="black"/>
</svg>
