<svg width="24" height="24" fill="none" xmlns="http://www.w3.org/2000/svg"><g clip-path="url(#clip0)" fill="#190134"><path fill-rule="evenodd" clip-rule="evenodd" d="M12 7a5 5 0 100 10 5 5 0 000-10zm-7 5a7 7 0 1114 0 7 7 0 01-14 0z"/><path d="M8.128.008a1 1 0 01.8.62l2 5a1 1 0 01-1.856.743l-1.396-3.49a5.341 5.341 0 01-.908.724c-.675.41-1.384.427-1.801.437l-.118.003c-.445.017-.54.06-.642.162-.101.102-.145.197-.162.642l-.003.118c-.01.417-.028 1.126-.437 1.801-.195.322-.46.635-.723.908l3.49 1.396a1 1 0 01-.743 1.857l-5-2a1 1 0 01-.224-1.733l.009-.006.033-.026a10.545 10.545 0 00.575-.476c.363-.323.704-.678.873-.956.125-.206.132-.4.151-.936v-.02c.019-.494.061-1.297.747-1.983.686-.686 1.489-.728 1.984-.746l.02-.001c.534-.02.729-.026.935-.151.278-.169.633-.51.956-.873a10.545 10.545 0 00.476-.575L7.19.414l.005-.008c.216-.291.573-.444.933-.398zM15.872 23.992a1 1 0 01-.8-.62l-2-5a1 1 0 011.857-.743l1.395 3.49c.273-.264.586-.53.908-.724.675-.41 1.384-.427 1.801-.437l.118-.003c.445-.016.54-.06.642-.162.101-.101.146-.197.162-.642l.003-.118c.01-.417.028-1.126.437-1.801a5.34 5.34 0 01.723-.908l-3.49-1.396a1 1 0 01.743-1.857l5 2a1 1 0 01.224 1.733l-.009.006-.033.026a9.174 9.174 0 00-.575.476c-.363.323-.704.678-.873.956-.125.206-.132.4-.151.935v.02c-.019.495-.061 1.298-.747 1.984-.686.686-1.489.728-1.984.746l-.02.001c-.534.02-.729.026-.935.151-.278.169-.633.51-.957.873a10.566 10.566 0 00-.475.575l-.026.033-.005.008a1.001 1.001 0 01-.933.398z"/><path fill-rule="evenodd" clip-rule="evenodd" d="M16.707 7.293a1 1 0 010 1.414l-8 8a1 1 0 01-1.414-1.414l8-8a1 1 0 011.414 0z"/></g><defs><clipPath id="clip0"><path fill="#fff" d="M0 0h24v24H0z"/></clipPath></defs></svg>