<svg width="24" height="24" viewBox="0 0 24 24" fill="none" xmlns="http://www.w3.org/2000/svg">
<path fill-rule="evenodd" clip-rule="evenodd" d="M5 5C4.75123 5 4.5114 5.09272 4.32733 5.26006L4.32601 5.26126L4.32388 5.2632L4.31726 5.26927L4.29482 5.29C4.27588 5.30758 4.24911 5.33261 4.2154 5.36462C4.14802 5.42859 4.05271 5.52058 3.93664 5.63664C3.70498 5.8683 3.38812 6.19837 3.04431 6.59507C2.37201 7.3708 1.53424 8.47181 1.07152 9.62861C0.6416 10.7034 0.376849 11.7667 0.219419 12.5539C0.140286 12.9496 0.0872753 13.2805 0.0538006 13.5148C0.0370476 13.6321 0.0251431 13.7255 0.0172794 13.791C0.0133465 13.8238 0.0104209 13.8496 0.00840223 13.868L0.00604093 13.89L0.00534618 13.8967L0.0049628 13.9005C0.00165635 13.9336 0 13.9668 0 14V15C0 15.5523 0.447715 16 1 16H2.17071C2.58254 17.1652 3.69378 18 5 18C6.30622 18 7.41746 17.1652 7.82929 16H15.1707C15.5825 17.1652 16.6938 18 18 18C19.3062 18 20.4175 17.1652 20.8293 16H23C23.5523 16 24 15.5519 24 14.9996V12C24 11.0949 23.5184 10.5188 23.0547 10.2096C22.8367 10.0643 22.6257 9.97738 22.4725 9.92632C22.3943 9.90025 22.3267 9.88204 22.2746 9.86964C22.2484 9.86341 22.2258 9.85856 22.2073 9.85487L22.1827 9.85014L22.1727 9.84836L22.1684 9.84761L22.1644 9.84694L17.5596 9.07947L15.55 6.4L15.5484 6.39781L15.5464 6.39523L15.5416 6.38897L15.5286 6.37211C15.5183 6.35901 15.5049 6.34223 15.4885 6.32229C15.4559 6.2825 15.4108 6.22963 15.3543 6.16803C15.2425 6.04602 15.0801 5.88348 14.8747 5.71913C14.4843 5.40679 13.828 5 13 5H5ZM20.8293 14H22V12C22 11.9592 21.995 11.936 21.9923 11.9259C21.9896 11.9159 21.9863 11.9103 21.9863 11.9103C21.9845 11.9074 21.9756 11.8939 21.9453 11.8737C21.9133 11.8524 21.8743 11.8351 21.84 11.8237C21.8295 11.8202 21.8213 11.8178 21.8163 11.8165L16.8356 10.9864C16.5819 10.9441 16.3543 10.8057 16.2 10.6L13.9536 7.60486L13.9431 7.59177C13.9309 7.57687 13.9095 7.55162 13.88 7.51947C13.82 7.45398 13.7324 7.36652 13.6253 7.28087C13.3907 7.09321 13.172 7 13 7H5.40196L5.35086 7.05086C5.14502 7.2567 4.86188 7.55163 4.55569 7.90493C3.92799 8.6292 3.26576 9.52819 2.92848 10.3714C2.5584 11.2966 2.32315 12.2333 2.18058 12.9461C2.10971 13.3004 2.06272 13.5945 2.0337 13.7977C2.02172 13.8815 2.01283 13.9497 2.00661 14H2.17071C2.58254 12.8348 3.69378 12 5 12C6.30622 12 7.41746 12.8348 7.82929 14H15.1707C15.5825 12.8348 16.6938 12 18 12C19.3062 12 20.4175 12.8348 20.8293 14ZM5 14C4.44772 14 4 14.4477 4 15C4 15.5523 4.44772 16 5 16C5.55228 16 6 15.5523 6 15C6 14.4477 5.55228 14 5 14ZM18 14C17.4477 14 17 14.4477 17 15C17 15.5523 17.4477 16 18 16C18.5523 16 19 15.5523 19 15C19 14.4477 18.5523 14 18 14Z" fill="#190134"/>
<path fill-rule="evenodd" clip-rule="evenodd" d="M21 0C21.5523 5.96046e-08 22 0.447715 22 1V2H23C23.5523 2 24 2.44772 24 3C24 3.55229 23.5523 4 23 4L22 4V5C22 5.55228 21.5523 6 21 6C20.4477 6 20 5.55228 20 5L20 4H19C18.4477 4 18 3.55228 18 3C18 2.44772 18.4477 2 19 2H20V1C20 0.447715 20.4477 0 21 0Z" fill="#190134"/>
</svg>
