<svg width="24" height="24" viewBox="0 0 24 24" fill="none" xmlns="http://www.w3.org/2000/svg">
<path fill-rule="evenodd" clip-rule="evenodd" d="M2 13V7C3.65685 7 5 5.65685 5 4H17C17 5.65685 18.3431 7 20 7V9.10134C20.7424 9.20413 21.421 9.38131 22 9.61539V4.75C22 3.10996 20.5272 2 19 2H3C1.47275 2 0 3.10996 0 4.75V15.25C0 16.89 1.47275 18 3 18H12V16H5C5 14.3431 3.65685 13 2 13ZM3 4C2.31811 4 2 4.45704 2 4.75V5C2.55228 5 3 4.55228 3 4ZM20 5V4.75C20 4.45704 19.6819 4 19 4C19 4.55228 19.4477 5 20 5ZM2 15.25V15C2.55228 15 3 15.4477 3 16C2.31811 16 2 15.543 2 15.25Z" fill="#190134"/>
<path d="M11 6C13.0395 6 14.7226 7.52643 14.969 9.49921C14.1848 9.72603 13.4884 10.0203 12.9675 10.361C12.9888 10.2439 13 10.1233 13 10C13 8.89543 12.1046 8 11 8C9.89543 8 9 8.89543 9 10C9 11.1046 9.89543 12 11 12C11.3643 12 11.7058 11.9026 12 11.7324V13.874C11.6804 13.9562 11.3453 14 11 14C8.79086 14 7 12.2091 7 10C7 7.79086 8.79086 6 11 6Z" fill="#190134"/>
<path fill-rule="evenodd" clip-rule="evenodd" d="M18.5 10C21.5376 10 24 11.3431 24 13V20.5C24 21.7184 23.1228 22.6112 22.1676 23.1419C21.1785 23.6914 19.8799 24 18.5 24C17.1201 24 15.8215 23.6914 14.8324 23.1419C13.8772 22.6112 13 21.7184 13 20.5V13C13 11.3431 15.4624 10 18.5 10ZM21.4314 12.6345C21.7155 12.7895 21.8642 12.9171 21.9401 13C21.8642 13.0829 21.7155 13.2105 21.4314 13.3655C20.7828 13.7193 19.7501 14 18.5 14C17.2499 14 16.2172 13.7193 15.5686 13.3655C15.2845 13.2105 15.1358 13.0829 15.0599 13C15.1358 12.9171 15.2845 12.7895 15.5686 12.6345C16.2172 12.2807 17.2499 12 18.5 12C19.7501 12 20.7828 12.2807 21.4314 12.6345ZM14.986 12.8955L14.9866 12.8977C14.9866 12.8977 14.9878 12.9007 14.9889 12.903C14.9877 12.899 14.986 12.8955 14.986 12.8955ZM22 15.3143V16.5C22 16.6623 21.8698 17.0195 21.1963 17.3936C20.5567 17.7489 19.6054 18 18.5 18C17.3946 18 16.4433 17.7489 15.8037 17.3936C15.1302 17.0195 15 16.6623 15 16.5V15.3143C15.9509 15.7426 17.1704 16 18.5 16C19.8296 16 21.0491 15.7426 22 15.3143ZM22 20.5V19.2312C21.034 19.7247 19.8032 20 18.5 20C17.1968 20 15.966 19.7247 15 19.2312V20.5C15 20.6623 15.1302 21.0195 15.8037 21.3936C16.4433 21.7489 17.3946 22 18.5 22C19.6054 22 20.5567 21.7489 21.1963 21.3936C21.8698 21.0195 22 20.6623 22 20.5Z" fill="#190134"/>
</svg>
