<svg width="24" height="24" viewBox="0 0 24 24" fill="none" xmlns="http://www.w3.org/2000/svg">
<path fill-rule="evenodd" clip-rule="evenodd" d="M12.707 3.12132C12.3165 2.7308 11.6834 2.7308 11.2928 3.12132L3.12126 11.2929C2.73074 11.6834 2.73074 12.3166 3.12126 12.7071L7.00002 16.5859L7.00005 12.9996C7.00009 11.3427 8.34334 9.99999 9.99998 9.99999L14.5858 10L13.2929 8.70711C12.9024 8.31658 12.9024 7.68342 13.2929 7.29289C13.6834 6.90237 14.3166 6.90237 14.7071 7.29289L17.7071 10.2929C18.0976 10.6834 18.0976 11.3166 17.7071 11.7071L14.7071 14.7071C14.3166 15.0976 13.6834 15.0976 13.2929 14.7071C12.9024 14.3166 12.9024 13.6834 13.2929 13.2929L14.5858 12L9.99998 12C9.4476 12 9.00006 12.4476 9.00005 12.9997L9 18.5858L11.2928 20.8787C11.6834 21.2692 12.3165 21.2692 12.707 20.8787L20.8786 12.7071C21.2691 12.3166 21.2691 11.6834 20.8786 11.2929L12.707 3.12132ZM9.87862 1.70711C11.0502 0.535538 12.9497 0.535536 14.1213 1.70711L22.2928 9.87868C23.4644 11.0503 23.4644 12.9497 22.2928 14.1213L14.1213 22.2929C12.9497 23.4645 11.0502 23.4645 9.87862 22.2929L1.70705 14.1213C0.535477 12.9498 0.535475 11.0503 1.70705 9.87868L9.87862 1.70711Z" fill="#190134"/>
</svg>
