<svg width="24" height="24" fill="none" xmlns="http://www.w3.org/2000/svg"><path fill-rule="evenodd" clip-rule="evenodd" d="M6.41 9c1.016-3.58 3.797-6 6.84-6 1.957 0 3.774.972 5.114 2.629a1 1 0 001.555-1.258C18.265 2.326 15.909 1 13.249 1 8.896 1 5.433 4.478 4.352 9H3a1 1 0 100 2h1.038a13.043 13.043 0 000 2H3a1 1 0 100 2h1.351c1.08 4.522 4.544 8 8.899 8 2.658 0 5.015-1.326 6.669-3.371a1 1 0 10-1.555-1.258C17.024 20.028 15.207 21 13.25 21c-3.043 0-5.824-2.42-6.84-6H13a1 1 0 100-2H6.043a11.442 11.442 0 010-2H13a1 1 0 100-2H6.41z" fill="#190134"/></svg>