<svg width="24" height="24" viewBox="0 0 24 24" fill="none" xmlns="http://www.w3.org/2000/svg">
<path fill-rule="evenodd" clip-rule="evenodd" d="M8 11V14C8 15.6569 6.65685 17 5 17C3.34315 17 2 15.6569 2 14V11C2 9.34315 3.34315 8 5 8C6.65685 8 8 9.34315 8 11ZM6 11V14C6 14.5523 5.55228 15 5 15C4.44772 15 4 14.5523 4 14V11C4 10.4477 4.44772 10 5 10C5.55228 10 6 10.4477 6 11ZM13 17H14C15.6569 17 17 18.3431 17 20C17 21.6569 15.6569 23 14 23H13C11.3431 23 10 21.6569 10 20C10 18.3431 11.3431 17 13 17ZM22 11V14C22 15.6569 20.6569 17 19 17C17.3431 17 16 15.6569 16 14V11C16 9.34315 17.3431 8 19 8C20.6569 8 22 9.34315 22 11ZM20 11V14C20 14.5523 19.5523 15 19 15C18.4477 15 18 14.5523 18 14V11C18 10.4477 18.4477 10 19 10C19.5523 10 20 10.4477 20 11ZM12 20C12 19.4477 12.4477 19 13 19H14C14.5523 19 15 19.4477 15 20C15 20.5523 14.5523 21 14 21H13C12.4477 21 12 20.5523 12 20Z" fill="#190134"/>
<path fill-rule="evenodd" clip-rule="evenodd" d="M4 13C4.0124 13.4181 4 13.5994 4 14C4 14.5523 3.60342 15 3.05114 15C2.49886 15 2.05114 14.5523 2.05114 14C2.05114 13.7163 2.04131 13.3626 2.03031 12.967C2.0101 12.2401 1.98596 11.3717 2.01166 10.5365C2.05314 9.1887 2.21962 7.67905 2.75484 6.26204C3.29659 4.82774 4.21882 3.48382 5.75132 2.51141C7.27284 1.54595 9.31169 1 12 1C14.6883 1 16.7271 1.54595 18.2487 2.51141C19.7812 3.48382 20.7034 4.82774 21.2451 6.26204C21.7804 7.67905 21.9469 9.18869 21.9883 10.5365C22.014 11.3717 21.9899 12.24 21.9697 12.9669C21.9624 13.2301 21.9556 13.4748 21.9519 13.6926C21.9831 13.7894 22 13.8927 22 14V17.9996L22 18.0012C21.9998 18.1021 21.9847 18.8566 21.4214 19.6045C20.8178 20.406 19.7401 21 18 21H17C16.4477 21 16 20.5523 16 20C16 19.4477 16.4477 19 17 19H18C19.2534 19 19.6757 18.598 19.8237 18.4014C19.9785 18.1959 19.998 17.9934 20 17.979V14.3165C19.9668 14.217 20 14.1106 20 14C20 13.5993 20 13.5 20 13C20.0198 12.3315 20.014 11.4018 19.9893 10.5981C19.9509 9.34977 19.7977 8.09018 19.3742 6.96873C18.9571 5.86457 18.2813 4.90079 17.1771 4.20013C16.0619 3.49251 14.4253 3 12 3C9.57465 3 7.93806 3.49251 6.82287 4.20013C5.71865 4.90079 5.04288 5.86457 4.62582 6.96873C4.20224 8.09018 4.04913 9.34977 4.01071 10.5981C3.98598 11.4018 3.98018 12.3314 4 13Z" fill="#190134"/>
</svg>
