<svg width="16" height="20" viewBox="0 0 20 24" fill="none" xmlns="http://www.w3.org/2000/svg">
<path fill-rule="evenodd" clip-rule="evenodd" d="M0 1C0 0.447715 0.447715 0 1 0H15C15.5523 0 16 0.447715 16 1C16 1.55228 15.5523 2 15 2H14V7C14 7.35126 13.8157 7.67677 13.5145 7.85749L9.94365 10L13.5145 12.1425C13.8157 12.3232 14 12.6487 14 13V18H15C15.5523 18 16 18.4477 16 19C16 19.5523 15.5523 20 15 20H1C0.447715 20 0 19.5523 0 19C0 18.4477 0.447715 18 1 18H2V13C2 12.6487 2.1843 12.3232 2.4855 12.1425L6.05635 10L2.4855 7.85749C2.1843 7.67677 2 7.35126 2 7V2H1C0.447715 2 0 1.55228 0 1ZM8 8.83381L12 6.43381V2H4V6.43381L8 8.83381ZM8 11.1662L4 13.5662V18H12V13.5662L8 11.1662ZM6 15C6 14.4477 6.44772 14 7 14H9C9.55229 14 10 14.4477 10 15C10 15.5523 9.55229 16 9 16H7C6.44772 16 6 15.5523 6 15Z" fill="#8B99A2"/>
</svg>
