<svg width="24" height="24" fill="none" xmlns="http://www.w3.org/2000/svg"><path d="M14.614 2.056a.823.823 0 0 0-.505.397c-.074.139-.089.231-.089.547 0 .331.013.403.1.558.11.197.294.34.515.401.089.025.982.041 2.308.041 2.475 0 2.448-.003 2.754.303.327.328.303-.294.303 7.698 0 5.906-.009 7.137-.055 7.289a1.02 1.02 0 0 1-.461.582l-.184.108-2.321.02-2.321.02-.199.102c-.34.175-.481.484-.45.982.03.464.244.752.639.858.103.028.963.038 2.544.029 2.376-.013 2.389-.013 2.668-.106a3.111 3.111 0 0 0 2.026-2.045l.094-.3V4.46l-.094-.3a3.084 3.084 0 0 0-2.025-2.038l-.321-.1-2.38-.009c-1.888-.008-2.414.001-2.546.043M9.626 6.045c-.206.109-.48.388-.588.599a.792.792 0 0 0 .002.719c.06.12.639.729 1.813 1.907L12.578 11H7.695c-5.233 0-5.087-.005-5.373.199-.222.158-.302.369-.302.801 0 .331.013.403.1.558.11.197.294.34.515.401.094.026 1.885.041 5.044.041h4.899l-1.725 1.73C9.679 15.908 9.1 16.517 9.04 16.637c-.177.352-.088.717.259 1.064.347.347.711.436 1.064.259.123-.061.95-.857 2.698-2.594 1.387-1.378 2.573-2.54 2.635-2.582.154-.102.353-.545.353-.784 0-.256-.198-.679-.373-.799-.075-.051-1.261-1.213-2.636-2.583-1.661-1.654-2.557-2.518-2.668-2.574a.884.884 0 0 0-.746.001" fill-rule="evenodd" fill="#000"/></svg>
