<svg width="24" height="24" fill="none" xmlns="http://www.w3.org/2000/svg"><path d="M4.499 2.043a3.044 3.044 0 0 0-2.387 2.135L2.02 4.5v15l.092.322a3.08 3.08 0 0 0 2.066 2.066c.32.092.335.092 2.765.092h2.443l.195-.12c.241-.149.377-.394.408-.734.043-.472-.128-.849-.456-1.011l-.193-.095L7.02 20l-2.32-.02-.189-.111a1.038 1.038 0 0 1-.454-.539c-.079-.223-.079-14.437 0-14.66.079-.221.241-.414.454-.539L4.7 4.02 7.043 4l2.343-.02.195-.12c.247-.153.38-.397.408-.751.028-.344-.066-.664-.25-.847-.26-.26-.289-.263-2.796-.257-1.234.002-2.334.02-2.444.038m11.127 4.002a1.68 1.68 0 0 0-.583.59.864.864 0 0 0 .001.737c.055.109.69.775 1.809 1.897l1.724 1.73-4.96.01-4.959.011-.199.102a.76.76 0 0 0-.319.297c-.112.181-.12.222-.12.578 0 .347.011.401.111.572a.862.862 0 0 0 .3.3l.189.111 4.978.011 4.978.011-1.723 1.729c-1.119 1.122-1.754 1.788-1.809 1.897-.176.352-.085.733.255 1.073.34.34.721.431 1.073.255.111-.056 1.007-.92 2.668-2.574 1.375-1.37 2.558-2.53 2.629-2.578.182-.124.371-.533.371-.804s-.189-.68-.371-.804c-.071-.048-1.254-1.208-2.629-2.578-1.661-1.654-2.557-2.518-2.668-2.574a.884.884 0 0 0-.746.001" fill-rule="evenodd" fill="#000"/></svg>
