<svg width="24" height="24" fill="none" xmlns="http://www.w3.org/2000/svg"><path fill-rule="evenodd" clip-rule="evenodd" d="M6.343 4.343A8 8 0 0120 10c0 3.098-2.016 6.104-4.226 8.437A29.412 29.412 0 0112 21.773a29.419 29.419 0 01-3.774-3.335C6.016 16.103 4 13.097 4 10a8 8 0 012.343-5.657zm5.102 19.489L12 23l.555.832a1 1 0 01-1.11 0zm0 0L12 23c.555.832.556.831.556.831l.002-.001.007-.005.023-.015.082-.057c.072-.05.174-.12.302-.214a31.433 31.433 0 004.254-3.727C19.516 17.397 22 13.903 22 10a10 10 0 00-20 0c0 3.902 2.484 7.396 4.774 9.813a31.428 31.428 0 004.254 3.726 18.887 18.887 0 00.384.27l.023.016.007.005.003.002zM10 10a2 2 0 114 0 2 2 0 01-4 0zm2-4a4 4 0 100 8 4 4 0 000-8z" fill="#190134"/></svg>