<svg width="24" height="24" fill="none" xmlns="http://www.w3.org/2000/svg"><path fill-rule="evenodd" clip-rule="evenodd" d="M5 6a1 1 0 00-1.707-.707l-2 2a1 1 0 001.414 1.414L3 8.414V18a1 1 0 102 0V6zm4 3a2 2 0 114 0c0 .58-.247 1.187-.746 1.873-.503.69-1.189 1.367-1.946 2.093l-.182.174c-.679.649-1.408 1.346-1.973 2.06C7.541 15.974 7 16.914 7 18a1 1 0 001 1h6a1 1 0 100-2H9.33a5.18 5.18 0 01.392-.56c.474-.598 1.103-1.2 1.81-1.877l.16-.154c.743-.711 1.557-1.504 2.18-2.36C14.496 11.19 15 10.171 15 9a4 4 0 00-8 0 1 1 0 002 0zm9 0a2 2 0 112 2 1 1 0 100 2 2 2 0 11-2 2 1 1 0 10-2 0 4 4 0 106.646-3A4 4 0 1016 9a1 1 0 102 0z" fill="#190134"/></svg>