<svg width="24" height="24" viewBox="0 0 24 24" fill="none" xmlns="http://www.w3.org/2000/svg">
<path fill-rule="evenodd" clip-rule="evenodd" d="M11.555 2.34553L11.5559 2.34508C11.6939 2.27666 11.8459 2.24106 12 2.24106C12.1541 2.24106 12.306 2.27666 12.4441 2.34508L12.445 2.34553L19.7589 6.00251L17 7.38197L9.24106 3.50249L11.555 2.34553ZM6.469 2.65246L2.66499 4.55447L2.66375 4.55508C2.16448 4.80346 1.7443 5.18609 1.45041 5.66003C1.15627 6.13436 1.00028 6.68134 0.999988 7.23947L0.999987 7.24V16.7569C0.996817 17.3146 1.14921 17.8623 1.44009 18.3383C1.73164 18.8153 2.15071 19.2015 2.65001 19.453L2.65277 19.4544L10.6525 23.4543C11.0693 23.6628 11.5289 23.7714 11.995 23.7714C12.4609 23.7714 12.9205 23.6629 13.3372 23.4544L13.3375 23.4543L21.335 19.4555L21.336 19.455C21.8354 19.2067 22.2556 18.824 22.5496 18.35C22.8437 17.8756 22.9997 17.3287 23 16.7705V16.77V7.24V7.23947C22.9997 6.68134 22.8437 6.13436 22.5496 5.66003C22.2557 5.18611 21.8355 4.80349 21.3363 4.5551L21.335 4.55447L13.3372 0.55557L12.89 1.45L13.335 0.554467C12.9202 0.34833 12.4632 0.241058 12 0.241058C11.5368 0.241058 11.0798 0.34833 10.665 0.554467L10.6628 0.55557L6.63928 2.56732C6.58011 2.59018 6.52306 2.61866 6.469 2.65246ZM7.00499 4.62053L14.7639 8.5L12 9.88197L4.24106 6.0025L7.00499 4.62053ZM17.4388 9.39866L13 11.618V21.387L20.4428 17.6656L20.445 17.6645C20.6116 17.5817 20.7518 17.4541 20.8498 17.2959C20.9479 17.1378 20.9999 16.9555 21 16.7695V7.61805L17.4571 9.38952C17.451 9.39263 17.4449 9.39568 17.4388 9.39866ZM2.99999 7.61803L2.99999 16.76V16.767H2.99996C2.99867 16.9533 3.04947 17.1363 3.14666 17.2954C3.24368 17.4541 3.38307 17.5827 3.54914 17.6665L3.54996 17.667L11 21.392V11.618L2.99999 7.61803Z" fill="black"/>
</svg>
