<svg
  width="24"
  height="24"
  viewBox="0 0 24 24"
  fill="none"
  xmlns="http://www.w3.org/2000/svg"
>
  <path
    fill-rule="evenodd"
    clip-rule="evenodd"
    d="M22.7221 2.69174C23.1042 2.29291 23.0906 1.65989 22.6917 1.27786C22.2929 0.895817 21.6599 0.909431 21.2779 1.30826L17.2105 5.55437L15.7221 4.00057C15.3401 3.60174 14.7071 3.58813 14.3083 3.97016C13.9094 4.3522 13.8958 4.98522 14.2779 5.38405L16.4884 7.69174C16.677 7.88865 16.9379 8 17.2105 8C17.4832 8 17.7441 7.88865 17.9327 7.69174L22.7221 2.69174ZM22.0262 22.1388C22.6487 21.5678 23.0015 20.7608 22.9981 19.916L22.9981 16.9313C23.029 15.4143 21.9216 14.1121 20.4178 13.8999C19.5236 13.7819 18.6543 13.5654 17.8177 13.2532C16.7237 12.8419 15.4878 13.1055 14.655 13.929L13.9339 14.6501C12.0893 13.4742 10.524 11.9089 9.34813 10.0643L10.0652 9.34721C10.8927 8.51045 11.1563 7.27455 10.7442 6.17824C10.4328 5.34388 10.2163 4.47464 10.0995 3.58934C9.88752 2.0891 8.60407 0.985329 7.09827 1.00015L4.10811 1.0001C3.26506 1.00089 2.46206 1.35559 1.89432 1.97753C1.32658 2.59948 1.04638 3.43141 1.12217 4.2701C1.46853 7.53288 2.57341 10.6532 4.34883 13.3938C5.95817 15.9265 8.11171 18.08 10.6518 19.6941C13.3722 21.4584 16.4774 22.563 19.7101 22.9142C20.5694 22.9921 21.4038 22.7099 22.0262 22.1388ZM20.9984 16.8953L20.9981 16.9201V19.9201C20.9993 20.2057 20.8816 20.4747 20.6742 20.6651C20.4667 20.8554 20.1886 20.9495 19.9081 20.9242C17.0045 20.6085 14.198 19.6101 11.7322 18.0111C9.43217 16.5495 7.48873 14.606 6.03213 12.3138C4.42277 9.82943 3.42418 7.00931 3.11252 4.0745C3.08879 3.81054 3.18219 3.53323 3.37144 3.32591C3.56068 3.11859 3.82835 3.00036 4.10905 3.0001L7.10811 3.0001C7.61989 2.99511 8.0477 3.36304 8.11795 3.86005C8.25318 4.8857 8.5063 5.90177 8.87122 6.87971C9.00943 7.2474 8.92157 7.65936 8.64706 7.93696L7.38101 9.20299C7.06269 9.52131 6.99631 10.0131 7.21882 10.4044C8.73135 13.0644 10.9338 15.2669 13.5938 16.7794C13.9851 17.0019 14.4769 16.9355 14.7952 16.6172L16.0652 15.3472C16.3388 15.0766 16.7508 14.9888 17.1163 15.1262C18.0964 15.4919 19.1125 15.745 20.1474 15.8815C20.6412 15.9512 21.011 16.3877 20.9984 16.8953Z"
    fill="black"
  />
</svg>
