<svg width="24" height="24" viewBox="0 0 24 24" fill="none" xmlns="http://www.w3.org/2000/svg">
<path fill-rule="evenodd" clip-rule="evenodd" d="M17.7071 0.292893C17.3166 -0.0976311 16.6834 -0.0976311 16.2929 0.292893C15.9024 0.683417 15.9024 1.31658 16.2929 1.70711L18.5858 4H7C5.67392 4 4.40215 4.52678 3.46447 5.46447C2.52678 6.40215 2 7.67392 2 9V11C2 11.5523 2.44772 12 3 12C3.55228 12 4 11.5523 4 11V9C4 8.20435 4.31607 7.44129 4.87868 6.87868C5.44129 6.31607 6.20435 6 7 6H18.5858L16.2929 8.29289C15.9024 8.68342 15.9024 9.31658 16.2929 9.70711C16.6834 10.0976 17.3166 10.0976 17.7071 9.70711L21.7071 5.70711C21.8902 5.52405 21.9874 5.28768 21.9989 5.04797C21.9996 5.03199 22 5.016 22 5L17.7071 0.292893ZM17.7071 0.292893L21.7071 4.29289C21.9 4.48581 21.9976 4.73793 22 4.99077L17.7071 0.292893ZM22 15V13C22 12.4477 21.5523 12 21 12C20.4477 12 20 12.4477 20 13V15C20 15.7956 19.6839 16.5587 19.1213 17.1213C18.5587 17.6839 17.7956 18 17 18H5.41421L7.70711 15.7071C8.09763 15.3166 8.09763 14.6834 7.70711 14.2929C7.31658 13.9024 6.68342 13.9024 6.29289 14.2929L2.29289 18.2929C2.19702 18.3888 2.12468 18.4993 2.07588 18.6172C2.02699 18.7351 2 18.8644 2 19C2 19.1356 2.02699 19.2649 2.07588 19.3828C2.12468 19.5007 2.19702 19.6112 2.29289 19.7071L6.29289 23.7071C6.68342 24.0976 7.31658 24.0976 7.70711 23.7071C8.09763 23.3166 8.09763 22.6834 7.70711 22.2929L5.41421 20H17C18.3261 20 19.5979 19.4732 20.5355 18.5355C21.4732 17.5979 22 16.3261 22 15Z" fill="black"/>
</svg>
