<svg width="24" height="24" fill="none" xmlns="http://www.w3.org/2000/svg"><g clip-path="url(#clip0)"><path fill-rule="evenodd" clip-rule="evenodd" d="M21.707 1.707A1 1 0 0020.293.293L16.98 3.606l-1.262-1.302a1 1 0 00-1.425-.011l-2 2A1 1 0 0012 5v2.586L9.793 9.793a1 1 0 000 1.414l3 3a1 1 0 001.414 0L16.414 12H19a1 1 0 00.707-.293l2-2a1 1 0 000-1.414L20.414 7l3.293-3.293a1 1 0 00-1.414-1.414l-3.304 3.304-.595-.577 3.313-3.313zM16.273 5.75l2.025 1.964L19.586 9l-1 1H16a1 1 0 00-.707.293L13.5 12.086 11.914 10.5l1.793-1.793A1 1 0 0014 8V5.414l.989-.989 1.262 1.302a.869.869 0 00.022.022zm-8.566 5.544a1 1 0 00-1.496.093l-3.5 4.5a1 1 0 00.082 1.321l.293.293-2.793 2.793a1 1 0 101.414 1.414L4.5 18.914l.586.586-2.793 2.793a1 1 0 101.414 1.414L6.5 20.914l.293.293a1 1 0 001.32.082l4.5-3.5a1 1 0 00.094-1.496l-5-5zm-2.876 5.124l2.263-2.909 3.398 3.398-2.91 2.263-2.75-2.752zm16.876-.71a1 1 0 00-1.414-1.414L16 18.586V17a1 1 0 10-2 0v4a1 1 0 001 1h4a1 1 0 100-2h-1.586l4.293-4.293z" fill="#190134"/></g><defs><clipPath id="clip0"><path fill="#fff" d="M0 0h24v24H0z"/></clipPath></defs></svg>