<svg width="24" height="24" fill="none" xmlns="http://www.w3.org/2000/svg"><path fill-rule="evenodd" clip-rule="evenodd" d="M6 7a3 3 0 116 0 3 3 0 01-6 0zm3-5a5 5 0 100 10A5 5 0 009 2zM5 14a5 5 0 00-5 5v2a1 1 0 001 1h16a1 1 0 001-1v-2a5 5 0 00-5-5H5zm-2.121 2.879A3 3 0 015 16h8a3 3 0 013 3v1H2v-1a3 3 0 01.879-2.121zm16.153-1.999a1 1 0 011.218-.718A5 5 0 0124 18.999V21a1 1 0 11-2 0v-2a3 3 0 00-2.25-2.902 1 1 0 01-.718-1.218zM16.248 2.161a1 1 0 10-.496 1.938 3 3 0 010 5.812 1 1 0 10.496 1.938 5 5 0 000-9.688z" fill="#190134"/></svg>