<svg width="24" height="24" fill="none" xmlns="http://www.w3.org/2000/svg"><g clip-path="url(#clip0)"><path fill-rule="evenodd" clip-rule="evenodd" d="M1.707.293A1 1 0 00.293 1.707l7.025 7.025c.012.048.027.096.046.143a5.015 5.015 0 002.478 2.636.998.998 0 00.35.095L12.586 14H8a5 5 0 00-5 5v2a1 1 0 001 1h16c.17 0 .33-.042.47-.117l1.823 1.824a1 1 0 001.414-1.414l-22-22zM18.586 20l-4.004-4.003A1.019 1.019 0 0114.5 16H8a3 3 0 00-3 3v1h13.586zM12 4c-.896 0-1.7.391-2.25 1.016a1 1 0 11-1.5-1.324 5 5 0 116.875 7.21 1 1 0 11-1.25-1.56A3 3 0 0012 4z" fill="#190134"/></g><defs><clipPath id="clip0"><path fill="#fff" d="M0 0h24v24H0z"/></clipPath></defs></svg>