<svg width="24" height="24" fill="none" xmlns="http://www.w3.org/2000/svg"><path fill-rule="evenodd" clip-rule="evenodd" d="M7.153 1.293A1 1 0 017.86 1h8.28a1 1 0 01.707.293l5.86 5.86A1 1 0 0123 7.86v8.28a1 1 0 01-.293.707l-5.86 5.86a1 1 0 01-.707.293H7.86a1 1 0 01-.707-.293l-5.86-5.86A1 1 0 011 16.14V7.86a1 1 0 01.293-.707l5.86-5.86zM8.274 3L3 8.274v7.452L8.274 21h7.452L21 15.726V8.274L15.726 3H8.274zM11 16a1 1 0 011-1h.01a1 1 0 110 2H12a1 1 0 01-1-1zm2-8a1 1 0 10-2 0v4a1 1 0 102 0V8z" fill="#190134"/></svg>