<svg width="24" height="24" viewBox="0 0 24 24" fill="none" xmlns="http://www.w3.org/2000/svg">
<path fill-rule="evenodd" clip-rule="evenodd" d="M12 3C7.02944 3 3 7.02944 3 12C3 16.9706 7.02943 21 12 21C16.9706 21 21 16.9706 21 12C21 7.02944 16.9706 3 12 3ZM0.999998 12C0.999999 5.92487 5.92487 1 12 1C18.0751 1 23 5.92487 23 12C23 18.0751 18.0751 23 12 23C5.92486 23 0.999997 18.0751 0.999998 12Z" fill="black"/>
<path fill-rule="evenodd" clip-rule="evenodd" d="M12.7071 7.2929C13.0976 7.68342 13.0976 8.31659 12.7071 8.70711L9.41421 12L12.7071 15.2929C13.0976 15.6834 13.0976 16.3166 12.7071 16.7071C12.3166 17.0976 11.6834 17.0976 11.2929 16.7071L7.29289 12.7071C6.90237 12.3166 6.90237 11.6834 7.29289 11.2929L11.2929 7.2929C11.6834 6.90237 12.3166 6.90237 12.7071 7.2929Z" fill="black"/>
<path fill-rule="evenodd" clip-rule="evenodd" d="M7 12C7 11.4477 7.44772 11 8 11L16 11C16.5523 11 17 11.4477 17 12C17 12.5523 16.5523 13 16 13L8 13C7.44771 13 7 12.5523 7 12Z" fill="black"/>
</svg>
