<svg width="24" height="24" fill="none" xmlns="http://www.w3.org/2000/svg"><g clip-path="url(#clip0)"><path fill-rule="evenodd" clip-rule="evenodd" d="M1.707.293A1 1 0 00.293 1.707L5 6.414 4 9V14a2 2 0 01-2 2 1 1 0 100 2h14.586l5.707 5.707a1 1 0 001.414-1.414l-6-6-11.22-11.22-4.78-4.78zM14.586 16L6.168 7.582A6 6 0 006 8.999V14a4 4 0 01-.536 2h9.122zM9.05 3.77A6 6 0 0118 9v4a1 1 0 102 0V9A8 8 0 008.069 2.03a1 1 0 10.982 1.74zm2.084 16.728a1 1 0 00-1.73 1.004 3 3 0 005.19 0 1 1 0 00-1.73-1.004 1 1 0 01-1.73 0z" fill="#190134"/></g><defs><clipPath id="clip0"><path fill="#fff" d="M0 0h24v24H0z"/></clipPath></defs></svg>