<svg width="24" height="24" fill="none" xmlns="http://www.w3.org/2000/svg"><path fill-rule="evenodd" clip-rule="evenodd" d="M5 5a1 1 0 00-.673.26l-.001.001-.002.002-.007.006-.022.021a15.146 15.146 0 00-.358.347c-.232.231-.549.561-.893.958-.672.776-1.51 1.877-1.972 3.034a16.985 16.985 0 00-.853 2.925 17.733 17.733 0 00-.21 1.314l-.003.022v.007l-.001.003A1 1 0 000 14v1a1 1 0 001 1h1.17a3.001 3.001 0 005.66 0h7.34a3.001 3.001 0 005.66 0H23a1 1 0 001-1v-3c0-.905-.482-1.481-.945-1.79a2.456 2.456 0 00-.848-.355l-.024-.005-.01-.002h-.005l-.004-.001-4.604-.768L15.55 6.4l-.002-.002-.002-.003-.004-.006-.013-.017a2.91 2.91 0 00-.175-.204 4.305 4.305 0 00-.48-.449C14.485 5.407 13.829 5 13 5H5zm15.83 9H22v-2a.288.288 0 00-.008-.074c-.002-.01-.006-.016-.006-.016a.134.134 0 00-.04-.036.458.458 0 00-.13-.058l-4.98-.83a1 1 0 01-.636-.386l-2.246-2.995-.01-.013a2.3 2.3 0 00-.318-.31c-.235-.189-.454-.282-.626-.282H5.402l-.051.05c-.206.207-.49.502-.795.855-.628.724-1.29 1.623-1.628 2.466-.37.926-.605 1.862-.747 2.575A15.709 15.709 0 002.007 14h.164a3.001 3.001 0 015.658 0h7.342a3.001 3.001 0 015.658 0zM5 14a1 1 0 100 2 1 1 0 000-2zm13 0a1 1 0 100 2 1 1 0 000-2z" fill="#190134"/></svg>