<svg width="24" height="24" fill="none" xmlns="http://www.w3.org/2000/svg"><path fill-rule="evenodd" clip-rule="evenodd" d="M2 6.75C2 6.457 2.318 6 3 6a1 1 0 01-1 1v-.25zM2 9v6a3 3 0 013 3h14a3 3 0 013-3V9a3 3 0 01-3-3H5a3 3 0 01-3 3zm20-2.25V7a1 1 0 01-1-1c.682 0 1 .457 1 .75zM21 18a1 1 0 011-1v.25c0 .293-.318.75-1 .75zM2 17v.25c0 .293.318.75 1 .75a1 1 0 00-1-1zM3 4C1.473 4 0 5.11 0 6.75v10.5C0 18.89 1.473 20 3 20h18c1.527 0 3-1.11 3-2.75V6.75C24 5.11 22.527 4 21 4H3zm8 8a1 1 0 112 0 1 1 0 01-2 0zm1-3a3 3 0 100 6 3 3 0 000-6z" fill="#190134"/></svg>