<svg width="24" height="24" fill="none" xmlns="http://www.w3.org/2000/svg"><path fill-rule="evenodd" clip-rule="evenodd" d="M3 14a1 1 0 011 1v4a1 1 0 001 1h14a1 1 0 001-1v-4a1 1 0 112 0v4a3 3 0 01-3 3H5a3 3 0 01-3-3v-4a1 1 0 011-1z" fill="#190134"/><path fill-rule="evenodd" clip-rule="evenodd" d="M6.293 9.293a1 1 0 011.414 0L12 13.586l4.293-4.293a1 1 0 111.414 1.414l-5 5a1 1 0 01-1.414 0l-5-5a1 1 0 010-1.414z" fill="#190134"/><path fill-rule="evenodd" clip-rule="evenodd" d="M12 2a1 1 0 011 1v12a1 1 0 11-2 0V3a1 1 0 011-1z" fill="#190134"/></svg>