<svg width="24" height="24" fill="none" xmlns="http://www.w3.org/2000/svg"><path fill-rule="evenodd" clip-rule="evenodd" d="M3 12a9 9 0 1118 0 9 9 0 01-18 0zm9-11C5.925 1 1 5.925 1 12s4.925 11 11 11 11-4.925 11-11S18.075 1 12 1zM7.4 13.2a1 1 0 011.397.196l.005.006.033.041a4.952 4.952 0 00.815.748c.578.42 1.376.809 2.35.809.975 0 1.772-.39 2.35-.809a4.951 4.951 0 00.815-.748l.034-.041.004-.006A1 1 0 0116.8 14.6l-.001.001-.001.002-.003.004-.007.009-.021.027-.07.086a6.944 6.944 0 01-1.171 1.08c-.798.58-2 1.191-3.526 1.191-1.525 0-2.728-.61-3.526-1.191a6.942 6.942 0 01-1.17-1.08 4.174 4.174 0 01-.07-.086l-.022-.027-.007-.01-.003-.003V14.6L7.2 14.6a1 1 0 01.2-1.4zM8 9a1 1 0 011-1h.01a1 1 0 110 2H9a1 1 0 01-1-1zm7-1a1 1 0 100 2h.01a1 1 0 100-2H15z" fill="#190134"/></svg>