<svg width="24" height="24" viewBox="0 0 24 24" fill="none" xmlns="http://www.w3.org/2000/svg">
<g clip-path="url(#clip0)">
<path fill-rule="evenodd" clip-rule="evenodd" d="M1.70711 0.292893C1.31658 -0.0976311 0.683418 -0.0976311 0.292893 0.292893C-0.097631 0.683417 -0.097631 1.31658 0.292893 1.70711L4.54478 5.959C2.74696 7.51586 1.24594 9.3907 0.118695 11.493C-0.0347449 11.7792 -0.0396884 12.122 0.105437 12.4125L1 11.9656C0.105437 12.4125 0.105605 12.4128 0.105789 12.4132L0.106234 12.4141L0.107404 12.4164L0.110862 12.4233L0.122238 12.4456C0.131801 12.4642 0.145322 12.4902 0.162772 12.5232C0.197665 12.5892 0.248308 12.6831 0.31447 12.8008C0.446717 13.0361 0.641416 13.3675 0.896749 13.7632C1.40617 14.5526 2.16346 15.6076 3.15539 16.6664C5.12094 18.7646 8.12676 21 12.039 21L12.0553 20.9999C14.1148 20.9662 16.1179 20.3603 17.8444 19.2586L22.2929 23.7071C22.6834 24.0976 23.3166 24.0976 23.7071 23.7071C24.0976 23.3166 24.0976 22.6834 23.7071 22.2929L18.8906 17.4764C18.8436 17.3843 18.7821 17.299 18.7074 17.2243L14.8778 13.3919L14.8708 13.3848L10.6218 9.13254L10.615 9.12579L6.7853 5.29316C6.70432 5.21213 6.61249 5.14765 6.51425 5.10004L1.70711 0.292893ZM14.0524 15.4666L16.3882 17.8024C15.0649 18.5586 13.567 18.9735 12.0308 19C8.92197 18.9969 6.41113 17.2165 4.61498 15.2991C3.72526 14.3494 3.03996 13.3958 2.5772 12.6787C2.39727 12.3999 2.25197 12.1584 2.14231 11.9687C3.14442 10.2299 4.43707 8.67698 5.96306 7.37727L8.53875 9.95297C8.44984 10.099 8.37016 10.2509 8.30032 10.4077C8.08118 10.8999 7.96336 11.4312 7.95386 11.9699C7.94436 12.5086 8.04338 13.0438 8.24503 13.5434C8.44669 14.043 8.74685 14.4969 9.12765 14.878C9.50846 15.2591 9.96211 15.5596 10.4616 15.7615C10.961 15.9634 11.496 16.0625 12.0346 16.053C12.5732 16.0435 13.1044 15.9255 13.5964 15.7061C13.7537 15.636 13.906 15.5559 14.0524 15.4666ZM10.0404 11.4546L12.5515 13.9657C12.3728 14.0204 12.187 14.05 11.9993 14.0533C11.7295 14.0581 11.4614 14.0084 11.2111 13.9072C10.9608 13.8061 10.7334 13.6554 10.5424 13.4643C10.3514 13.2732 10.2009 13.0455 10.0997 12.7948C9.99848 12.5441 9.94878 12.2756 9.95355 12.0052C9.95685 11.8181 9.98618 11.6328 10.0404 11.4546ZM20.3693 15.6892C19.9407 15.3408 19.8757 14.711 20.224 14.2824C20.8071 13.565 21.3335 12.8009 21.7974 11.9968C21.6883 11.8084 21.544 11.5689 21.3655 11.2925C20.9045 10.5787 20.2218 9.6294 19.3354 8.68393C17.546 6.77523 15.0448 5.0031 11.9481 5C11.3172 5.01088 10.6929 5.08746 10.0845 5.22644C9.54613 5.34945 9.00994 5.0127 8.88694 4.47429C8.76393 3.93587 9.10068 3.39969 9.63909 3.27668C10.3848 3.10631 11.1502 3.01277 11.9236 3.00012L11.9399 2.99999C15.8394 2.99999 18.8355 5.22643 20.7945 7.31605C21.7831 8.37059 22.5379 9.4213 23.0456 10.2075C23.3001 10.6015 23.4941 10.9316 23.626 11.166C23.6919 11.2832 23.7424 11.3767 23.7772 11.4424C23.7946 11.4753 23.8081 11.5013 23.8176 11.5198L23.829 11.542L23.8324 11.5489L23.8336 11.5512L23.834 11.5521C23.8342 11.5524 23.8344 11.5528 22.9399 12L23.8344 11.5528C23.9797 11.8434 23.9747 12.1865 23.8211 12.4728C23.2366 13.5621 22.5513 14.59 21.776 15.5439C21.4277 15.9724 20.7979 16.0375 20.3693 15.6892Z" fill="black"/>
</g>
<defs>
<clipPath id="clip0">
<path d="M0 0H24V24H0V0Z" fill="white"/>
</clipPath>
</defs>
</svg>
