<svg width="24" height="24" fill="none" xmlns="http://www.w3.org/2000/svg"><path fill-rule="evenodd" clip-rule="evenodd" d="M11.293 2.293A1 1 0 0113 3v.094a2.65 2.65 0 001.601 2.423 2.65 2.65 0 002.918-.532l.069-.068a1 1 0 011.415 0 .999.999 0 010 1.416l-.06.06-.008.008a2.65 2.65 0 00-.607 2.729c.012.09.037.18.073.264A2.65 2.65 0 0020.826 11H21a1 1 0 010 2h-.094a2.65 2.65 0 00-2.423 1.601 2.65 2.65 0 00.532 2.918l.068.069a1 1 0 010 1.415 1 1 0 01-1.416 0l-.06-.06-.008-.008a2.651 2.651 0 00-2.918-.532 2.65 2.65 0 00-1.601 2.423V21a1 1 0 01-2 0V20.887a2.65 2.65 0 00-1.705-2.415 2.651 2.651 0 00-2.894.543l-.069.068a.999.999 0 01-1.415 0 1 1 0 010-1.416l.06-.06.008-.008a2.65 2.65 0 00.532-2.918 2.65 2.65 0 00-2.423-1.601H3a1 1 0 010-2H3.113a2.65 2.65 0 002.414-1.705 2.65 2.65 0 00-.542-2.894l-.068-.069a1 1 0 010-1.415 1 1 0 011.416 0l.06.06.008.008a2.65 2.65 0 002.729.607 1 1 0 00.264-.073A2.65 2.65 0 0011 3.174V3a1 1 0 01.293-.707zm9.022 13.11L19.4 15l.92.394a.65.65 0 01.593-.394H21a3 3 0 000-6h-.168a.65.65 0 01-.533-.285 1.006 1.006 0 00-.064-.199.65.65 0 01.127-.714l.055-.055a2.999 2.999 0 00-.973-4.895 3 3 0 00-3.271.651l-.055.055a.65.65 0 01-.714.127l-.01-.004A.65.65 0 0115 3.087V3a3 3 0 00-6 0v.167a.65.65 0 01-.285.534 1 1 0 00-.199.064.65.65 0 01-.714-.127l-.054-.055a3 3 0 10-4.245 4.244l.055.055a.65.65 0 01.127.714l-.024.059a.65.65 0 01-.585.425H3a3 3 0 100 6h.167a.65.65 0 01.594.394l.004.01a.65.65 0 01-.127.714l-.055.055a3 3 0 003.27 4.895c.365-.151.696-.372.974-.651l.055-.055a.65.65 0 01.714-.127l.059.023a.651.651 0 01.425.586V21a3 3 0 106 0v-.168a.65.65 0 01.394-.593l.01-.004a.65.65 0 01.714.127l.055.055a2.999 2.999 0 004.244 0l-.707-.707.707.707a2.999 2.999 0 000-4.245l-.055-.054a.65.65 0 01-.127-.714zM10 12a2 2 0 114 0 2 2 0 01-4 0zm2-4a4 4 0 100 8 4 4 0 000-8z" fill="#190134"/></svg>