<svg width="24" height="24" fill="none" xmlns="http://www.w3.org/2000/svg"><path fill-rule="evenodd" clip-rule="evenodd" d="M14.462 2.493a6.5 6.5 0 018.99 6.007 6.499 6.499 0 01-1.905 4.597l-8.84 8.84a1 1 0 01-1.414 0l-8.84-8.84a6.501 6.501 0 019.192-9.196l.002.002.353.35.353-.35.002-.002a6.5 6.5 0 012.107-1.408zm2.488 1.505a4.5 4.5 0 00-3.183 1.319l-.003.003-1.06 1.05a1 1 0 01-1.408 0l-1.063-1.053a4.501 4.501 0 00-6.366 6.366L12 19.816l8.133-8.133a4.501 4.501 0 00-3.183-7.685z" fill="#190134"/></svg>