<svg width="24" height="24" fill="none" xmlns="http://www.w3.org/2000/svg"><path fill-rule="evenodd" clip-rule="evenodd" d="M12 3a9 9 0 100 18 9 9 0 000-18zM1 12C1 5.925 5.925 1 12 1s11 4.925 11 11-4.925 11-11 11S1 18.075 1 12zm11.258-3.976a2 2 0 00-2.225 1.308 1 1 0 11-1.886-.664 4 4 0 017.773 1.333c0 1.53-1.135 2.54-1.945 3.081a8.036 8.036 0 01-1.686.848l-.035.013-.011.003-.004.002h-.002L11.92 13l.316.949a1 1 0 01-.633-1.897H11.6h.003l.015-.006.074-.027a6.046 6.046 0 001.172-.6c.69-.46 1.055-.95 1.055-1.419v-.001a2 2 0 00-1.662-1.975zM12 16a1 1 0 100 2h.01a1 1 0 100-2H12z" fill="#190134"/></svg>