<svg width="24" height="24" fill="none" xmlns="http://www.w3.org/2000/svg"><path d="M22.998 19.916a3 3 0 01-3.288 2.998 20.778 20.778 0 01-9.058-3.22 20.49 20.49 0 01-6.303-6.3A20.804 20.804 0 011.122 4.27 3 3 0 014.108 1h2.99A3.002 3.002 0 0110.1 3.59c.116.885.333 1.754.644 2.588a3.002 3.002 0 01-.679 3.17l-.717.716a15.002 15.002 0 004.586 4.586l.721-.721a2.999 2.999 0 013.163-.676c.836.312 1.706.529 2.6.647a3 3 0 012.58 3.031v2.985zm-2-2.996v-.025a.998.998 0 00-.85-1.013 13.847 13.847 0 01-3.032-.756.998.998 0 00-1.05.221l-1.27 1.27a1 1 0 01-1.202.162 17 17 0 01-6.375-6.375 1 1 0 01.162-1.201l1.266-1.266a1 1 0 00.224-1.057 13.817 13.817 0 01-.753-3.02A1.003 1.003 0 007.108 3H4.11a1 1 0 00-.996 1.074 18.8 18.8 0 002.92 8.24 18.512 18.512 0 005.7 5.697 18.775 18.775 0 008.175 2.913 1 1 0 001.09-1.004v-3z" fill="#190134"/></svg>