<svg width="24" height="24" fill="none" xmlns="http://www.w3.org/2000/svg"><path fill-rule="evenodd" clip-rule="evenodd" d="M12 3a9 9 0 100 18 9 9 0 000-18zM1 12C1 5.925 5.925 1 12 1s11 4.925 11 11-4.925 11-11 11S1 18.075 1 12z" fill="#190134"/><path fill-rule="evenodd" clip-rule="evenodd" d="M12 15c-2.005 0-2.934 1.104-3.106 1.447a1 1 0 11-1.788-.894C7.6 14.563 9.205 13 12 13s4.4 1.563 4.894 2.553a1 1 0 11-1.788.894C14.934 16.104 14.005 15 12 15zM8 9a1 1 0 011-1h.01a1 1 0 010 2H9a1 1 0 01-1-1zM14 9a1 1 0 011-1h.01a1 1 0 110 2H15a1 1 0 01-1-1z" fill="#190134"/></svg>