<svg width="24" height="24" fill="none" xmlns="http://www.w3.org/2000/svg"><path d="M13.609 1.265c-.475 0-.953.032-1.422.095a11.357 11.357 0 00-5.441 2.302C5.007 5.035 3.885 6.802 3.5 8.768c-.114.585-.163 1.232-.21 1.858-.074.979-.15 1.992-.462 2.653-.213.453-.53.754-1.389.754a1.246 1.246 0 00-.995 1.995c2.905 3.854 7.799 4.3 11.227 4.3l.253-.001H12.74c1.598 0 3.289-.079 4.83-.653a10.422 10.422 0 003.536-2.242c1.113-1.068 1.93-2.328 2.362-3.643.487-1.48.61-2.969.363-4.423a8.97 8.97 0 00-1.605-3.788c-.943-1.303-2.234-2.39-3.731-3.146a10.906 10.906 0 00-4.887-1.167zm0 1.246c5.613 0 10.61 5.011 8.677 10.889-.78 2.367-2.948 4.285-5.15 5.107-1.437.535-3.114.575-4.395.575l-.632-.001a29.748 29.748 0 00-.437 0c-3.218 0-7.66-.392-10.232-3.803 3.523 0 2.828-3.937 3.284-6.271.694-3.558 4.214-5.95 7.63-6.412.42-.057.84-.084 1.255-.084z" fill="#190134"/><path d="M10.038 19.971a2.5 2.5 0 11-4.982.428 2.5 2.5 0 014.982-.428zm8.574 0a2.5 2.5 0 11-4.982.429 2.5 2.5 0 014.982-.428zM11.508 8.716a1.196 1.196 0 11-2.392 0 1.196 1.196 0 012.392 0zM17.222 8.53a1.196 1.196 0 11-2.393 0 1.196 1.196 0 012.393 0zM13.186 15.131a4.591 4.591 0 01-2.798-.94c-.803-.618-1.32-1.472-1.42-2.342a.623.623 0 011.237-.142c.152 1.327 1.738 2.213 3.072 2.177 1.7-.045 2.824-1.061 3.055-2.042a.624.624 0 011.212.285c-.188.8-.704 1.543-1.453 2.09-.779.57-1.74.885-2.78.913a5.68 5.68 0 01-.125.001z" fill="#190134"/></svg>