<svg width="24" height="24" fill="none" xmlns="http://www.w3.org/2000/svg"><g clip-path="url(#clip0)"><path fill-rule="evenodd" clip-rule="evenodd" d="M9 2a1 1 0 00-.832.445L6.465 5H3a3 3 0 00-3 3v11a3 3 0 003 3h18a3 3 0 003-3V8a3 3 0 00-3-3h-3.465l-1.703-2.555A1 1 0 0015 2H9zM7.832 6.555L9.535 4h4.93l1.703 2.555A1 1 0 0017 7h4a1 1 0 011 1v11a1 1 0 01-1 1H3a1 1 0 01-1-1V8a1 1 0 011-1h4a1 1 0 00.832-.445zM9 13a3 3 0 116 0 3 3 0 01-6 0zm3-5a5 5 0 100 10 5 5 0 000-10z" fill="#190134"/></g><defs><clipPath id="clip0"><path fill="#fff" d="M0 0h24v24H0z"/></clipPath></defs></svg>