<svg width="24" height="24" fill="none" xmlns="http://www.w3.org/2000/svg"><g clip-path="url(#clip0)"><path fill-rule="evenodd" clip-rule="evenodd" d="M4.997 0a1 1 0 01.744.33l2.483 2.758A10.927 10.927 0 0113 2c6.075 0 11 4.925 11 11s-4.925 11-11 11S2 19.075 2 13c0-.65.057-1.289.165-1.91a5 5 0 01-.72-7.635L4.255.331A1 1 0 014.997 0zm4.907 5.995a5 5 0 00-.44-1.274A8.925 8.925 0 0113 4a9 9 0 11-8.932 7.884 4.997 4.997 0 005.552-3 5 5 0 00.284-2.889zm-4.906-3.5L2.916 4.811a3 3 0 104.168 0L4.998 2.496zm6.45 13.61a1 1 0 00-.895 0l-2 1a1 1 0 10.894 1.79L11 18.117l1.553.776a1 1 0 00.894 0L15 18.118l1.553.776a1 1 0 10.894-1.788l-2-1a1 1 0 00-.894 0L13 16.882l-1.553-.776zM9 12a1 1 0 011-1h.01a1 1 0 110 2H10a1 1 0 01-1-1zm7-1a1 1 0 100 2h.01a1 1 0 100-2H16z" fill="#190134"/></g><defs><clipPath id="clip0"><path fill="#fff" d="M0 0h24v24H0z"/></clipPath></defs></svg>