<svg width="24" height="24" fill="none" xmlns="http://www.w3.org/2000/svg"><path fill-rule="evenodd" clip-rule="evenodd" d="M12 3a9 9 0 100 18 9 9 0 000-18zM1 12C1 5.925 5.925 1 12 1s11 4.925 11 11-4.925 11-11 11S1 18.075 1 12zm7.476 2.195c.798-.578 2-1.185 3.524-1.185s2.726.607 3.524 1.185a6.94 6.94 0 011.171 1.075l.07.085.021.027.008.01.002.003.002.002v.001a1 1 0 01-1.593 1.208L15.2 16.6a3.616 3.616 0 00-.194-.218 4.934 4.934 0 00-.655-.567c-.577-.417-1.375-.805-2.35-.805-.977 0-1.775.388-2.352.805a4.935 4.935 0 00-.815.744L8.8 16.6l-.005.006a1 1 0 01-1.593-1.208v-.001l.002-.002.002-.003.008-.01.021-.027.07-.085c.059-.07.142-.164.248-.275.212-.22.522-.51.923-.8zm-.029-4.028A1 1 0 009 12h.01a1 1 0 001-1 .998.998 0 00.545-1.832l-3-2a1 1 0 00-1.11 1.664l2.002 1.335zm7.11-.004l1.998-1.33a1 1 0 00-1.11-1.665l-3 2A1 1 0 0014 11a1 1 0 001 1h.01a1 1 0 00.548-1.837z" fill="#190134"/></svg>