<svg width="24" height="24" fill="none" xmlns="http://www.w3.org/2000/svg"><path fill-rule="evenodd" clip-rule="evenodd" d="M9 0a1 1 0 00-.934.642 45.856 45.856 0 00-.319.861c-.19.524-.443 1.243-.697 2.02a37.895 37.895 0 00-.707 2.388C6.155 6.655 6 7.42 6 8c0 2.863 2.154 5.422 5.004 5.915A1.003 1.003 0 0011 14v8H9a1 1 0 100 2h6a1 1 0 100-2h-2v-8c0-.029-.001-.057-.004-.085C15.846 13.422 18 10.863 18 8c0-.58-.155-1.345-.343-2.09a37.912 37.912 0 00-.707-2.387 69.63 69.63 0 00-.992-2.818L15.94.659l-.006-.015V.642A1 1 0 0015 0H9zm.695 2l-.067.185a67.39 67.39 0 00-.678 1.96 35.94 35.94 0 00-.668 2.257c-.055.216-.102.415-.14.598h7.716a16.255 16.255 0 00-.14-.598 35.923 35.923 0 00-.668-2.257 67.151 67.151 0 00-.678-1.96L14.305 2h-4.61zm6.17 7h-7.73c.459 1.674 2.025 3 3.865 3 1.84 0 3.406-1.326 3.864-3z" fill="#190134"/></svg>