<svg width="24" height="24" fill="none" xmlns="http://www.w3.org/2000/svg"><g clip-path="url(#clip0)"><path fill-rule="evenodd" clip-rule="evenodd" d="M1.707.293A1 1 0 00.293 1.707L3.43 4.845A10 10 0 002 10c0 3.902 2.484 7.396 4.774 9.813a31.428 31.428 0 004.254 3.726 18.887 18.887 0 00.384.27l.023.016.007.005.003.002c.336.224.774.223 1.11 0l.004-.003.009-.006.031-.02.113-.079c.097-.067.236-.166.41-.293.347-.255.834-.627 1.404-1.1a30.35 30.35 0 003.261-3.13l4.506 4.506a1 1 0 001.414-1.414l-22-22zm14.664 17.492l-3.902-3.902A.996.996 0 0112 14a4 4 0 01-4-4c0-.17.042-.33.117-.47L4.9 6.315A8 8 0 004 10c0 3.098 2.016 6.104 4.226 8.437A29.419 29.419 0 0012 21.773c.316-.234.748-.565 1.25-.98a28.242 28.242 0 003.12-3.008zM12 2a8 8 0 00-4 1.072A1 1 0 017 1.34 10 10 0 0122 10c0 1.762-.508 3.434-1.258 4.945a1 1 0 01-1.791-.89C19.603 12.742 20 11.375 20 10a8 8 0 00-8-8zm-1 5a1 1 0 011-1 4 4 0 014 4 1 1 0 11-2 0 2 2 0 00-2-2 1 1 0 01-1-1z" fill="#190134"/></g><defs><clipPath id="clip0"><path fill="#fff" d="M0 0h24v24H0z"/></clipPath></defs></svg>