<svg width="24" height="24" fill="none" xmlns="http://www.w3.org/2000/svg"><path fill-rule="evenodd" clip-rule="evenodd" d="M16.703 3.71l-.289.29L20 7.586l.288-.289h.001l.008-.009.05-.055a3.347 3.347 0 00.642-1.111c.114-.344.16-.711.085-1.09-.074-.371-.28-.824-.781-1.325s-.954-.707-1.325-.781a2.105 2.105 0 00-1.09.085 3.348 3.348 0 00-1.166.692l-.009.008zM18.586 9L15 5.414l-11 11V20h3.586l11-11zM19.36.965c.8.16 1.598.58 2.347 1.328.749.749 1.168 1.546 1.328 2.347.159.793.05 1.52-.149 2.114a5.344 5.344 0 01-1.16 1.934l-.011.012-.005.004-.001.002h-.001L21 8l.707.707-13 13A1 1 0 018 22H3a1 1 0 01-1-1v-5a1 1 0 01.293-.707l13-13L16 3a94.175 94.175 0 01-.706-.708l.002-.002.004-.005.012-.01a2.663 2.663 0 01.145-.133 5.343 5.343 0 011.789-1.028 4.102 4.102 0 012.114-.15z" fill="#190134"/></svg>