<svg width="24" height="24" fill="none" xmlns="http://www.w3.org/2000/svg"><g clip-path="url(#clip0)"><path fill-rule="evenodd" clip-rule="evenodd" d="M10.063 12.523L22.293.293a1 1 0 111.414 1.414L12.123 13.291c.569.498 1.175.952 1.813 1.359l.72-.721a3 3 0 013.164-.676c.836.312 1.705.529 2.6.647A2.998 2.998 0 0123 16.89v2.996a3 3 0 01-3.288 2.998 20.78 20.78 0 01-9.058-3.22 20.418 20.418 0 01-2.782-2.122l-6.165 6.165a1 1 0 01-1.414-1.414l9.6-9.6a1.003 1.003 0 01.17-.17zm.643 2.185l-1.418 1.418c.76.683 1.577 1.303 2.446 1.855a18.775 18.775 0 008.176 2.913A1 1 0 0021 19.89v-3.01a.998.998 0 00-.85-.999 13.849 13.849 0 01-3.032-.755.998.998 0 00-1.05.221l-1.27 1.27a1 1 0 01-1.202.162 16.995 16.995 0 01-2.89-2.07zM5.734 13.65a1 1 0 00.295-1.383 18.79 18.79 0 01-2.915-8.194A1 1 0 014.111 3H7.11c.512-.005.94.363 1.01.86.135 1.026.388 2.042.753 3.02a1 1 0 01-.224 1.057L7.383 9.203a1 1 0 101.414 1.414l1.27-1.27a3.002 3.002 0 00.679-3.169 11.834 11.834 0 01-.645-2.589 3.002 3.002 0 00-3-2.589H4.11a3 3 0 00-2.986 3.27 20.806 20.806 0 003.227 9.084 1 1 0 001.383.295z" fill="#190134"/></g><defs><clipPath id="clip0"><path fill="#fff" d="M0 0h24v24H0z"/></clipPath></defs></svg>