<svg width="24" height="24" fill="none" xmlns="http://www.w3.org/2000/svg"><path fill-rule="evenodd" clip-rule="evenodd" d="M22.026 22.139a3 3 0 00.972-2.223v-2.985a3 3 0 00-2.58-3.031 11.863 11.863 0 01-2.6-.647 2.999 2.999 0 00-3.163.676l-.721.721a15.002 15.002 0 01-4.586-4.586l.717-.717a3.002 3.002 0 00.68-3.169A11.834 11.834 0 0110.1 3.59 3.002 3.002 0 007.098 1h-2.99a3 3 0 00-2.986 3.27 20.804 20.804 0 003.227 9.124 20.49 20.49 0 006.303 6.3 20.778 20.778 0 009.058 3.22 3.009 3.009 0 002.316-.775zm-1.028-5.244v3.025a1.002 1.002 0 01-1.09 1.004 18.775 18.775 0 01-8.176-2.913 18.512 18.512 0 01-5.7-5.697 18.8 18.8 0 01-2.92-8.24A1 1 0 014.11 3h3c.51-.005.939.363 1.009.86.135 1.026.388 2.042.753 3.02a1 1 0 01-.224 1.057L7.381 9.203a1 1 0 00-.162 1.201 17 17 0 006.375 6.375 1 1 0 001.201-.162l1.27-1.27a.998.998 0 011.051-.22c.98.365 1.997.618 3.031.755.494.07.864.506.851 1.013zm.82-14.602a1 1 0 010 1.414L19.523 6l2.293 2.293a1 1 0 01-1.414 1.414L18.11 7.414l-2.293 2.293a1 1 0 01-1.414-1.414L16.696 6l-2.293-2.293a1 1 0 011.414-1.414l2.293 2.293 2.293-2.293a1 1 0 011.414 0z" fill="#190134"/></svg>