<svg width="24" height="24" fill="none" xmlns="http://www.w3.org/2000/svg"><path fill-rule="evenodd" clip-rule="evenodd" d="M12 0a1 1 0 011 1v2a1 1 0 11-2 0V1a1 1 0 011-1zm0 8a4 4 0 100 8 4 4 0 000-8zm-6 4a6 6 0 1112 0 6 6 0 01-12 0zm7 9a1 1 0 10-2 0v2a1 1 0 102 0v-2zM3.513 3.513a1 1 0 011.414 0l1.42 1.42a1 1 0 01-1.414 1.414l-1.42-1.42a1 1 0 010-1.414zm15.554 14.14a1 1 0 00-1.414 1.414l1.42 1.42a1 1 0 001.414-1.414l-1.42-1.42zM0 12a1 1 0 011-1h2a1 1 0 110 2H1a1 1 0 01-1-1zm21-1a1 1 0 100 2h2a1 1 0 100-2h-2zM6.347 17.653a1 1 0 010 1.414l-1.42 1.42a1 1 0 01-1.414-1.414l1.42-1.42a1 1 0 011.414 0zm14.14-12.726a1 1 0 00-1.414-1.414l-1.42 1.42a1 1 0 001.414 1.414l1.42-1.42z" fill="#190134"/></svg>